Coordinates
version=1
nRows=21
nColumns=33
inDegrees=yes

Units are S.I. units (second, meters, Newtons, ...)
Angles are in degrees.

endheader
time	ground_thorax_rot_x	ground_thorax_rot_y	ground_thorax_rot_z	ground_thorax_tx	ground_thorax_ty	ground_thorax_tz	clav_prot_r	clav_elev_r	scapula_abduction_r	scapula_elevation_r	scapula_upward_rot_r	scapula_winging_r	shoulder_elv_r	plane_of_elev_r	axial_rot_r	elbow_flexion_r	pro_sup_r	wrist_flex_r	wrist_dev_r	clav_prot_l	clav_elev_l	scapula_abduction_l	scapula_elevation_l	scapula_upward_rot_l	scapula_winging_l	shoulder_elv_l	plane_of_elev_l	axial_rot_l	elbow_flexion_l	pro_sup_l	wrist_flex_l	wrist_dev_l
      6.78000000	    -41.53265392	     -2.02574020	     -1.48572000	   -112.25963280	    897.74934362	     -4.75090803	      7.73287927	    -45.00000000	     45.00000000	    -45.00000000	    -10.81931607	   1701.48599517	  -3527.23678453	     31.73145859	     78.85174618	   1459.68498151	     83.74417081	     17.11136995	      2.60554631	     14.81451373	     41.90893090	    -44.69115214	    -45.00000000	    -31.46696475	    447.77437849	  -2255.70032248	    137.34167004	    169.82625757	    732.17922936	   -323.27156767	      7.18286709	    -22.59947986
      6.79000000	    -41.57449182	     -1.78764083	     -1.80870365	   -108.33410670	    896.15060502	     -4.27020582	      7.29908921	    -45.00000000	     45.00000000	    -45.00000000	     -9.40290505	   1701.81634770	  -3527.25659433	     31.55293543	     78.45989751	   1459.75746056	     84.33940073	     17.34384071	      2.65204411	     15.41405635	     42.41174863	    -45.00000000	    -45.00000000	    -30.43524701	    447.69068928	  -2256.03992948	    137.35367807	    170.19947180	    731.87524989	   -326.49332011	      7.66955995	    -22.54348459
      6.80000000	    -41.69041952	     -1.60718273	     -2.13974506	   -104.31572741	    894.26074983	     -3.77697261	      6.87114123	    -45.00000000	     45.00000000	    -45.00000000	     -8.34950773	   1702.26985312	  -3527.43762618	     31.37295667	     78.27992451	   1459.78077840	     84.93192128	     17.47734638	      2.69260825	     15.62395017	     42.76188325	    -45.00000000	    -45.00000000	    -29.12886084	    447.21378991	  -2256.33240664	    137.56358080	    170.33758095	    731.35827997	   -330.01013136	      8.30901706	    -22.44195420
      6.81000000	    -41.77122352	     -1.39862051	     -2.46318652	   -100.20889983	    892.08511756	     -3.27017715	      6.47355615	    -45.00000000	     45.00000000	    -45.00000000	     -7.29749571	   1702.42998996	  -3527.78709147	     31.39105170	     78.27840882	   1459.83475883	     85.53408106	     17.35198445	      2.67563408	     15.82653604	     42.91126339	    -45.00000000	    -45.00000000	    -28.22559984	    446.76527502	  -2256.45895634	    137.60032127	    170.75519620	    731.09082932	   -334.08123660	      9.12702460	    -22.36441515
      6.82000000	    -41.88212823	     -1.58211818	     -2.51674515	    -96.02082422	    889.63672360	     -2.74928906	      6.41146949	    -45.00000000	     45.00000000	    -45.00000000	     -7.01902879	   1702.97283264	  -3527.95589610	     31.29443088	     77.96844995	   1459.89961109	     86.01573482	     17.40638631	      2.69772585	     15.57107404	     43.11197170	    -45.00000000	    -45.00000000	    -27.59300830	    446.61103404	  -2256.76974689	    137.44076556	    171.08688306	    730.65181349	   -337.32136602	      9.73256248	    -22.17086627
      6.83000000	    -41.97975670	     -1.62169551	     -2.65848551	    -91.76785834	    886.94005169	     -2.22078596	      6.26172326	    -45.00000000	     45.00000000	    -45.00000000	     -6.60589388	   1703.38528282	  -3528.23338071	     31.24652428	     77.62718268	   1459.94094626	     86.42190002	     17.41172381	      2.71965019	     15.44373082	     43.29359037	    -45.00000000	    -45.00000000	    -26.88900512	    446.29812046	  -2257.01289296	    137.35160920	    171.45003526	    730.30848988	   -340.21707625	     10.36840345	    -21.96889876
      6.84000000	    -42.05089254	     -1.63947020	     -2.81351027	    -87.46571303	    884.02706443	     -1.69355654	      6.05780672	    -45.00000000	     45.00000000	    -45.00000000	     -6.11024686	   1703.72864078	  -3528.55649191	     31.21768271	     77.28147084	   1459.95642321	     86.75504680	     17.40592071	      2.74877163	     15.46554353	     43.45366145	    -45.00000000	    -45.00000000	    -26.28122971	    445.94735698	  -2257.27212261	    137.22238572	    171.99984822	    730.03881977	   -342.82498879	     10.97067702	    -21.73937763
      6.85000000	    -42.12456175	     -1.50546457	     -3.10982518	    -83.13080213	    880.93260964	     -1.17921551	      5.79646209	    -45.00000000	     45.00000000	    -45.00000000	     -5.49728523	   1704.02210648	  -3528.96295202	     31.26230177	     77.00911058	   1459.96193845	     86.99964146	     17.36018344	      2.78036155	     15.47132111	     43.61275571	    -45.00000000	    -45.00000000	    -25.55316000	    445.46253387	  -2257.46165429	    137.19940041	    172.46546419	    729.80993451	   -345.23627211	     11.64462872	    -21.47085878
      6.86000000	    -42.21469476	     -1.71785588	     -3.11463444	    -78.78917809	    877.69986714	     -0.68906301	      5.71746819	    -45.00000000	     45.00000000	    -45.00000000	     -5.37265439	   1704.53165090	  -3529.27287719	     31.13655991	     76.51512882	   1459.98133944	     87.11645699	     17.44984331	      2.83312547	     15.37006470	     43.78327072	    -45.00000000	    -45.00000000	    -25.20654847	    445.15938565	  -2257.76736288	    137.04011743	    172.83825002	    729.50384778	   -347.06213385	     11.98975205	    -21.17746883
      6.87000000	    -42.26896184	     -1.66934555	     -3.36424670	    -74.45466153	    874.35603991	     -0.22583981	      5.52804264	    -45.00000000	     45.00000000	    -45.00000000	     -4.96233557	   1704.91718702	  -3529.65271185	     31.14990388	     76.02135461	   1459.99750949	     87.04701445	     17.50957785	      2.88855648	     15.49718288	     43.92501764	    -45.00000000	    -45.00000000	    -24.68566261	    444.71933965	  -2257.95503881	    136.94574580	    173.37152896	    729.33325571	   -348.66009971	     12.39990650	    -20.89367557
      6.88000000	    -42.34237022	     -1.74346056	     -3.47256678	    -70.18324897	    870.94606660	      0.21342137	      5.41742152	    -45.00000000	     45.00000000	    -45.00000000	     -4.83191338	   1705.39153642	  -3529.99600417	     31.10349726	     75.44115398	   1460.00243209	     86.80040179	     17.58511694	      2.95508727	     15.39627787	     44.09468457	    -45.00000000	    -45.00000000	    -24.24522527	    444.40691957	  -2258.21319641	    136.84259983	    173.44214720	    729.20468781	   -349.92876875	     12.63471623	    -20.61577699
      6.89000000	    -42.36547644	     -1.74438850	     -3.61891006	    -65.94302736	    867.45837980	      0.64569955	      5.23503398	    -45.00000000	     45.00000000	    -45.00000000	     -4.48487476	   1705.75766900	  -3530.44252528	     31.05995105	     74.87513802	   1459.87646284	     86.28869347	     17.62644197	      3.06169160	     15.50904240	     44.23974756	    -45.00000000	    -45.00000000	    -23.91606622	    443.90280139	  -2258.41501602	    136.78594002	    173.75523001	    729.08721101	   -351.07466400	     12.88351655	    -20.33332616
      6.90000000	    -42.38754104	     -1.67421242	     -3.85589135	    -61.72667476	    863.89592348	      1.08467630	      5.01919627	    -45.00000000	     45.00000000	    -45.00000000	     -4.15412369	   1706.12212851	  -3530.87961008	     31.09243352	     74.35246626	   1459.77580495	     85.49260240	     17.64612413	      3.16943718	     15.52105119	     44.38269950	    -45.00000000	    -45.00000000	    -23.44440475	    443.40974892	  -2258.61538489	    136.73218276	    174.02481943	    728.93473665	   -351.95071386	     13.17522162	    -20.03746213
      6.91000000	    -42.41340468	     -1.79149686	     -3.92463700	    -57.48675433	    860.23519986	      1.54634462	      4.93384068	    -45.00000000	     45.00000000	    -45.00000000	     -4.07323343	   1706.60213118	  -3531.24352224	     31.00167460	     73.68387779	   1459.67292757	     84.48503558	     17.80190993	      3.31221584	     15.55358712	     44.52029497	    -45.00000000	    -45.00000000	    -23.18760050	    442.98612928	  -2258.92185828	    136.62296569	    174.36680103	    728.77015991	   -352.33707651	     13.21854624	    -19.81798086
      6.92000000	    -42.43185661	     -1.74517961	     -4.17396374	    -53.26941327	    856.50324272	      2.03256383	      4.72744759	    -45.00000000	     45.00000000	    -45.00000000	     -3.84232810	   1707.01864119	  -3531.71902736	     30.98672809	     73.02846854	   1459.50504178	     83.10543101	     17.89207520	      3.47736247	     15.60283388	     44.67178066	    -45.00000000	    -45.00000000	    -22.77377628	    442.47417463	  -2259.15203545	    136.51237073	    175.14718203	    728.58906314	   -352.23021114	     13.44004539	    -19.61945096
      6.93000000	    -42.44446474	     -1.95715649	     -4.18788995	    -49.06313141	    852.69697187	      2.54423315	      4.73500122	    -45.00000000	     45.00000000	    -45.00000000	     -3.97696099	   1707.51992596	  -3532.10457563	     30.92347650	     72.34524824	   1459.31442185	     81.71177673	     18.03505337	      3.66326851	     15.66968444	     44.77471579	    -45.00000000	    -45.00000000	    -22.81408009	    442.06472177	  -2259.38638664	    136.25279064	    175.98915472	    728.36226393	   -351.64299320	     13.44804455	    -19.49477103
      6.94000000	    -42.48414643	     -1.92295542	     -4.44535850	    -44.93564907	    848.85942682	      3.07013892	      4.53817461	    -45.00000000	     45.00000000	    -45.00000000	     -3.84696092	   1708.03261577	  -3532.51885531	     30.85064167	     71.66033472	   1459.16175538	     79.93223275	     18.24073758	      3.88586474	     15.82065592	     44.92807228	    -45.00000000	    -45.00000000	    -22.49921760	    441.51830427	  -2259.52464864	    136.08147081	    177.17429788	    728.07949273	   -350.63786643	     13.55198775	    -19.37716344
      6.95000000	    -42.42612768	     -1.99429792	     -4.59568688	    -40.91958075	    845.02066088	      3.59462801	      4.49588081	    -45.00000000	     45.00000000	    -45.00000000	     -3.92433921	   1708.50033019	  -3532.89674552	     30.86296314	     71.03979344	   1458.89711787	     77.91792235	     18.41093386	      4.14425960	     15.91698284	     45.00000000	    -45.00000000	    -45.00000000	    -22.56457574	    441.07096533	  -2259.72806342	    135.71549993	    178.32295191	    727.87951831	   -349.42827836	     13.63777086	    -19.30054229
      6.96000000	    -42.41376996	     -2.11251183	     -4.63039490	    -37.07685187	    841.22337431	      4.11008592	      4.46943866	    -45.00000000	     45.00000000	    -45.00000000	     -3.97011134	   1708.98343468	  -3533.35741235	     30.74339808	     70.35186800	   1458.51829194	     75.67364494	     18.57313541	      4.45169703	     15.97244256	     45.00000000	    -45.00000000	    -45.00000000	    -22.51196094	    440.47492349	  -2259.95244020	    135.64931680	    179.26631361	    727.61549442	   -348.28429184	     13.64158962	    -19.20490572
      6.97000000	    -42.37318101	     -2.21635944	     -4.68997334	    -33.38636871	    837.47875026	      4.61176135	      4.49531962	    -45.00000000	     45.00000000	    -45.00000000	     -4.20006202	   1709.51026708	  -3533.73702068	     30.70204933	     69.81892528	   1458.17079351	     73.27450701	     18.77831612	      4.78596015	     16.03637182	     45.00000000	    -45.00000000	    -45.00000000	    -22.67660061	    439.99717062	  -2260.11242833	    135.43832913	    179.92140365	    727.42497460	   -347.36559938	     13.62594928	    -19.09854539
      6.98000000	    -42.38486578	     -2.52253510	     -4.51686605	    -29.83821849	    833.80537658	      5.10424284	      4.73092939	    -45.00000000	     45.00000000	    -45.00000000	     -4.92323927	   1709.86881195	  -3534.19233621	     30.85586890	     69.44607035	   1457.85392181	     70.93144207	     18.84748246	      5.07226532	     15.79366006	     44.95615615	    -45.00000000	    -45.00000000	    -23.19521318	    439.84811416	  -2260.22904534	    134.97566417	    179.96591426	    727.26557895	   -346.69200888	     13.64736990	    -18.95841960
